<svg xmlns="http://www.w3.org/2000/svg" viewBox="0 0 1024 1024">
  <style>
    .keyhole { animation: lt-breathe 4s ease-in-out infinite; transform-origin: 512px 520px; }
    .glint { animation: lt-glint 6s ease-in-out infinite; }
    @keyframes lt-breathe {
      0%, 100% { transform: scale(1); }
      50% { transform: scale(1.045); }
    }
    @keyframes lt-glint {
      0%, 55%, 100% { transform: translateX(-900px) rotate(18deg); opacity: 0; }
      60% { opacity: 0.5; }
      75% { transform: translateX(900px) rotate(18deg); opacity: 0; }
    }
    @media (prefers-reduced-motion: reduce) {
      .keyhole, .glint { animation: none; }
    }
  </style>
  <defs>
    <linearGradient id="bg" x1="0" y1="0" x2="1" y2="1">
      <stop offset="0" stop-color="#3fa9fd"/>
      <stop offset="1" stop-color="#1465cf"/>
    </linearGradient>
    <linearGradient id="mint" x1="0" y1="0" x2="0" y2="1">
      <stop offset="0" stop-color="#2fc98e"/>
      <stop offset="1" stop-color="#059669"/>
    </linearGradient>
    <radialGradient id="glow" cx="0.5" cy="0.5" r="0.5">
      <stop offset="0" stop-color="#ffffff" stop-opacity="0.20"/>
      <stop offset="0.7" stop-color="#ffffff" stop-opacity="0.08"/>
      <stop offset="1" stop-color="#ffffff" stop-opacity="0"/>
    </radialGradient>
  </defs>
  <clipPath id="squircle"><rect width="1024" height="1024" rx="225.28"/></clipPath>
  <rect width="1024" height="1024" rx="225.28" fill="url(#bg)"/>
  <ellipse cx="512" cy="60" rx="700" ry="380" fill="url(#glow)"/>
  <polygon points="512,212 771.8076211353316,362 771.8076211353316,662 512,812 252.19237886466846,662.0000000000001 252.19237886466829,362.00000000000017" fill="#0c3f85" opacity="0.35" transform="translate(0 16)" stroke="#0c3f85" stroke-width="70" stroke-linejoin="round"/>
  <polygon points="512,212 771.8076211353316,362 771.8076211353316,662 512,812 252.19237886466846,662.0000000000001 252.19237886466829,362.00000000000017" fill="#ffffff" stroke="#ffffff" stroke-width="70" stroke-linejoin="round"/>
  <g class="keyhole">
    <circle cx="512" cy="465" r="92" fill="url(#mint)"/>
    <path d="M 478 520 L 546 520 L 576 664 Q 512 688 448 664 Z" fill="url(#mint)"/>
  </g>
  <g clip-path="url(#squircle)">
    <rect class="glint" x="380" y="-100" width="130" height="1300" fill="#ffffff" opacity="0.35"/>
  </g>
</svg>